<?xml version="1.0" encoding="utf-8"?>
<!-- Generator: Adobe Illustrator 16.0.0, SVG Export Plug-In . SVG Version: 6.00 Build 0)  -->
<!DOCTYPE svg PUBLIC "-//W3C//DTD SVG 1.1//EN" "http://www.w3.org/Graphics/SVG/1.1/DTD/svg11.dtd">
<svg version="1.1" id="Layer_1" xmlns="http://www.w3.org/2000/svg" xmlns:xlink="http://www.w3.org/1999/xlink" x="0px" y="0px"
	 width="500px" height="500px" viewBox="0 0 500 500" enable-background="new 0 0 500 500" xml:space="preserve">
<g opacity="0.9">
	<path fill="#241F1C" d="M466.782,254.193c0,115.428-96.74,210.409-218.194,210.409c-121.455,0-219.088-92.613-219.088-208.04
		c0-115.429,97.633-209.959,219.088-209.959C370.042,46.604,466.782,138.767,466.782,254.193z"/>
	<g>
		<path d="M464.627,253.683c0,115.429-96.74,210.409-218.194,210.409c-121.455,0-219.088-92.613-219.088-208.04
			c0-115.429,97.633-209.959,219.088-209.959C367.887,46.093,464.627,138.256,464.627,253.683z"/>
		
			<path fill="none" stroke="#000000" stroke-width="45" stroke-linecap="round" stroke-linejoin="round" stroke-dasharray="0,29.8733" d="
			M464.627,253.683c0,115.429-96.74,210.409-218.194,210.409c-121.455,0-219.088-92.613-219.088-208.04
			c0-115.429,97.633-209.959,219.088-209.959C367.887,46.093,464.627,138.256,464.627,253.683z"/>
	</g>
</g>
<path fill="#F98548" d="M283.381,79.003L283.381,79.003l4.403-21.235c-13.396-2.585-27.257-3.95-41.445-3.95
	c-115.516,0-209.162,89.919-209.162,200.842c0,110.922,93.645,200.84,209.162,200.84c115.517,0,209.161-89.918,209.161-200.84
	c0-36.804-10.318-71.29-28.312-100.951l-15.322,10.241l0,0c16.893,26.61,26.593,57.611,26.593,90.718
	c0,98.958-86.573,179.172-193.358,179.172c-17.519,0-30.894-1.309-47.033-5.355c0.095-0.25-3.412-1.371-3.324-1.624
	c-21.412-5.996-41.106-15.114-59.904-25.007c0.185-0.352-0.198,0.348,0,0C84.621,369.496,51.74,315.646,51.74,254.669
	c0-42.103,15.672-80.813,41.903-111.397c-0.087-0.133,4.13-3.992,4.043-4.126c16.723-17.865,32.071-28.373,53.189-40.967
	c0.151,0.396-0.139-0.403,0,0c27.88-14.449,60.012-22.694,94.224-22.694C258.206,75.485,271.005,76.701,283.381,79.003"/>
<path fill="#FAA948" d="M99.522,142.858c2.579,1.605,5.439,2.808,8.501,3.513"/>
<path fill="#FAA948" d="M142.679,399.557c1.136-2.455,2.649-4.692,4.446-6.666c-2.543,1.385-4.829,3.162-6.804,5.229
	C141.104,398.605,141.89,399.084,142.679,399.557z"/>
<path fill="#FAA948" d="M273.65,84.009l-33.665,169.185l1.176-0.656l32.752-168.482C273.828,84.04,273.738,84.026,273.65,84.009z"/>
<path fill="#F7CF6F" d="M408.261,167.888l-114.235,61.714l-46.149,25.523l0.131-0.66l-1.23,0.665l35.202-171.083
	c-11.986-2.21-24.379-3.378-37.068-3.378c-36.855,0-66.727,6.607-95.779,23.513c4.446,4.727,5.895,6.109,5.895,13.019
	c0,14.684-19.586,36.339-34.696,36.339c-5.81,0-9.296,2.638-13.726-0.366c-3.199-0.712-4.57-5.773-7.266-7.397
	c-27.232,30.245-43.041,66.918-43.041,109.356c0,61.452,34.362,115.473,86.274,146.549c2.065-2.091,1.898-7.389,4.557-8.789
	c5-5.312,14.733-5.146,22.723-5.146c15.11,0,27.359,11.902,27.359,26.585c0,3.233-0.596,6.334-1.683,9.199
	c15.742,3.938,32.294,6.055,49.383,6.055c104.166,0,188.615-78.103,188.615-174.451
	C433.523,223.344,424.317,193.554,408.261,167.888z"/>
<path fill="#910F06" d="M195.592,421.671c0-17.224-14.42-31.188-32.205-31.188c-6.609,0-12.744,1.938-17.854,5.246
	c-1.289,1.688-2.402,3.516-3.313,5.455c13.116,7.739,29.877,16.058,53.309,22.346C195.565,422.913,195.592,422.295,195.592,421.671z
	"/>
<path fill="#910F06" d="M192.598,420.107c0,0.547-0.025,1.089-0.061,1.627c0.832,0.201,1.662,0.402,2.499,0.596
	c1.172-2.834,1.815-5.898,1.815-9.098c0-3.401-3.608-26.291-29.5-26.291c-9.609,0-18.142,4.1-23.525,10.439
	c4.979-2.896,10.957-4.594,17.395-4.594C178.55,392.788,192.598,405.02,192.598,420.107z"/>
<path opacity="0.9" fill="#910F06" enable-background="new    " d="M151.896,102.446c-19.591,12.077-37.307,26.657-52.559,43.331
	c2.053,2.8,4.501,5.293,7.266,7.397c3.21,0.849,6.58,1.316,10.068,1.316c21.182,0,38.353-16.694,38.353-37.289
	C155.025,111.958,153.902,106.973,151.896,102.446z"/>
<path fill="#F98548" d="M427.549,143.478c-7.261-12.435-12.242-25.473-22.14-35.812l-39.033-29.679
	c-18.221-11.348-47.048-18.254-68.82-22.621l-20.188,125.41l18.271-113.494c48.203,9.244,96.963,42.566,121.105,81.744
	l-148.301,79.063l-1.014,5.375L427.549,143.478z"/>
<path fill="#FAA948" d="M293.01,71.245l-14.418,74.169l14.872-74.075C293.312,71.309,293.162,71.275,293.01,71.245z"/>
<path fill="#FAA948" d="M261.033,235.74l-0.901,4.64l152.747-87.343c-0.21-0.34-0.431-0.674-0.642-1.013L261.033,235.74z"/>
<path fill="#F7CF6F" d="M293.343,71.339l-14.817,74.075l-17.491,90.326l150.639-83.716
	C386.199,111.103,343.589,81.157,293.343,71.339z"/>
<ellipse fill="#910F06" cx="96.797" cy="209.986" rx="26.165" ry="26.293"/>
<ellipse fill="#910F06" cx="186.03" cy="234.716" rx="26.166" ry="26.293"/>
<ellipse fill="#910F06" cx="140.321" cy="327.961" rx="26.166" ry="26.292"/>
<ellipse fill="#910F06" cx="369.517" cy="327.962" rx="26.166" ry="26.293"/>
<ellipse fill="#910F06" cx="217.117" cy="125.999" rx="26.166" ry="26.293"/>
<ellipse fill="#910F06" cx="270.284" cy="386.941" rx="26.165" ry="26.293"/>
<ellipse fill="#910F06" cx="394.277" cy="234.463" rx="26.167" ry="26.292"/>
<ellipse opacity="0.7" fill="#910F06" enable-background="new    " cx="296.451" cy="281.855" rx="26.166" ry="26.293"/>
<ellipse fill="#910F06" cx="317.186" cy="120.078" rx="26.166" ry="26.293"/>
<path opacity="0.7" fill="#910F06" enable-background="new    " d="M260.249,212.481c-0.001,0.009-0.003,0.018-0.005,0.025
	C260.246,212.499,260.248,212.491,260.249,212.481z"/>
<path opacity="0.7" fill="#910F06" enable-background="new    " d="M260.252,212.465c-0.001,0.005-0.002,0.011-0.003,0.016
	C260.25,212.477,260.251,212.471,260.252,212.465z"/>
<path opacity="0.7" fill="#910F06" enable-background="new    " d="M260.284,212.296c-0.003,0.012-0.005,0.022-0.007,0.032
	C260.279,212.315,260.283,212.306,260.284,212.296z"/>
<path opacity="0.7" fill="#910F06" enable-background="new    " d="M260.244,212.506c-0.002,0.012-0.004,0.02-0.006,0.025
	C260.24,212.524,260.242,212.517,260.244,212.506z"/>
<path opacity="0.7" fill="#910F06" enable-background="new    " d="M260.277,212.328c-0.006,0.039-0.019,0.094-0.025,0.137
	C260.26,212.434,260.266,212.389,260.277,212.328z"/>
<path opacity="0.7" fill="#910F06" enable-background="new    " d="M270.09,160.725C270.09,160.718,270.09,160.721,270.09,160.725
	L270.09,160.725z"/>
<path opacity="0.7" fill="#910F06" enable-background="new    " d="M260.239,212.531
	C260.236,212.542,260.236,212.544,260.239,212.531L260.239,212.531z"/>
<polygon opacity="0.7" fill="#910F06" enable-background="new    " points="275.23,162.542 275.23,162.542 275.232,162.538 "/>
<path fill="#910F06" d="M275.23,162.542c-0.021,0.112-0.379,1.995-4.9,25.776c-3.745,19.7-4.697,24.702-4.9,25.775
	c14.168,3.021,27.846-6.069,30.553-20.305C298.689,179.553,289.398,165.564,275.23,162.542z"/>
<path opacity="0.7" fill="#910F06" enable-background="new    " d="M260.284,212.296c0.001-0.005,0.003-0.012,0.003-0.019l0,0
	C260.287,212.278,260.286,212.286,260.284,212.296z"/>
<path fill="#910F06" d="M363.714,153.532c-10.944,6.333-15.354,20.583-10.848,33.218l43.626-24.154
	C389.011,151.156,374.917,147.05,363.714,153.532z"/>
<path opacity="0.7" fill="#910F06" enable-background="new    " d="M349.327,181.078
	C349.319,181.082,349.324,181.08,349.327,181.078L349.327,181.078z"/>
<ellipse opacity="0.7" fill="#F9180D" enable-background="new    " cx="222.26" cy="275.935" rx="5.142" ry="5.921"/>
<ellipse opacity="0.7" fill="#F9180D" enable-background="new    " cx="317.186" cy="181.077" rx="5.144" ry="5.921"/>
<ellipse opacity="0.7" fill="#F9180D" enable-background="new    " cx="364.376" cy="125.999" rx="5.142" ry="5.921"/>
<ellipse opacity="0.7" fill="#F9180D" enable-background="new    " cx="122.963" cy="270.013" rx="5.143" ry="5.921"/>
<ellipse opacity="0.7" fill="#F9180D" enable-background="new    " cx="222.26" cy="373.263" rx="5.143" ry="5.921"/>
<ellipse opacity="0.7" fill="#F9180D" enable-background="new    " cx="369.548" cy="281.856" rx="5.142" ry="5.921"/>
<ellipse opacity="0.7" fill="#F9180D" enable-background="new    " cx="180.888" cy="177.771" rx="5.142" ry="5.921"/>
<rect x="37.178" y="229.5" width="426.604" height="62.702"/>
<text transform="matrix(1 0 0 1 39.8438 287.7773)" opacity="0.8" fill="#FFFFFF" enable-background="new    " font-family="'Phosphate-Inline'" font-size="80">P i z z e r i a</text>
<rect x="175.746" y="292.202" width="146.871" height="47.84"/>
<text transform="matrix(1 0 0 1 174.7368 335.042)" fill="none" stroke="#E71709" stroke-miterlimit="10" font-family="'GiddyupStd'" font-size="90">U</text>
<text transform="matrix(1 0 0 1 174.7368 335.042)" fill="none" stroke="#E71709" stroke-width="2" stroke-miterlimit="10" font-family="'GiddyupStd'" font-size="90">U</text>
<text transform="matrix(1 0 0 1 239.9858 335.042)" fill="none" stroke="#E71709" stroke-miterlimit="10" font-family="'GiddyupStd'" font-size="110">no</text>
<text transform="matrix(1 0 0 1 239.9858 335.042)" fill="none" stroke="#E71709" stroke-width="2" stroke-miterlimit="10" font-family="'GiddyupStd'" font-size="110">no</text>
<ellipse opacity="0.7" fill="#F9180D" enable-background="new    " cx="336.353" cy="373.263" rx="5.144" ry="5.921"/>
<ellipse opacity="0.7" fill="#F9180D" enable-background="new    " cx="91.654" cy="316.123" rx="5.143" ry="5.921"/>
</svg>
