<?xml version="1.0" encoding="utf-8"?>
<!DOCTYPE svg PUBLIC "-//W3C//DTD SVG 1.1//EN" "http://www.w3.org/Graphics/SVG/1.1/DTD/svg11.dtd">
<svg version="1.1" id="Layer_1" xmlns="http://www.w3.org/2000/svg" xmlns:xlink="http://www.w3.org/1999/xlink" x="0px" y="0px"
	 width="300px" height="270px" viewBox="0 0 300 270" enable-background="new 0 0 300 270" xml:space="preserve">
<path fill="#77A27D" stroke="#1C832B" stroke-miterlimit="10" d="M235.895,119.424"/>
<path fill="#77A27D" stroke="#1C832B" stroke-miterlimit="10" d="M239.146,120.929"/>
<path fill="#84CC93" d="M235.895,119.424"/>
<rect x="2.994" y="179.662" fill="none" width="350.449" height="88.42"/>
<text transform="matrix(0.9922 0 0 1 2.9941 247.7021)" fill="#F2F2F2" font-family="'AvenirNextCondensed-UltraLight'" font-size="90">CHITCHAT</text>
<path fill="#9CD7A5" d="M235.895,119.424"/>
<path fill="none" stroke="#1C832B" stroke-miterlimit="10" d="M2.995,30.722"/>
<path fill="#9CD7A5" d="M235.895,119.424"/>
<g>
	<g>
		<path fill="none" stroke="#000000" stroke-width="4" stroke-miterlimit="10" d="M65.178,174.48"/>
		<path fill="none" stroke="#000000" stroke-width="4" stroke-miterlimit="10" d="M65.178,118.543"/>
		<path fill="none" stroke="#000000" stroke-width="4" stroke-miterlimit="10" d="M107.356,135.832"/>
		<path fill="none" stroke="#000000" stroke-width="4" stroke-miterlimit="10" d="M65.178,118.543"/>
		<path fill="none" stroke="#000000" stroke-width="4" stroke-miterlimit="10" d="M65.178,118.543"/>
		<path fill="none" stroke="#000000" stroke-width="4" stroke-miterlimit="10" d="M22.999,135.832"/>
	</g>
</g>
<polyline fill="#77A27D" points="298.44,86.777 41.563,133.209 44.896,73.692 295.19,85.272 "/>
<polyline fill="#84CC93" points="295.19,85.272 44.896,73.692 47.327,29.812 295.19,85.272 "/>
<polygon opacity="0.3" fill="#383C38" points="157.505,118.135 41.563,133.209 47.327,29.812 "/>
<line fill="#9CD7A5" x1="3.56" y1="1.918" x2="295.19" y2="85.272"/>
<polyline fill="#9CD7A5" points="295.19,85.272 47.327,29.812 3.56,1.918 "/>
<polygon fill="#59635B" points="109.736,133.209 41.563,133.209 103.251,100.177 "/>
<path fill="none" stroke="#1C832B" stroke-miterlimit="10" d="M231.089,245.439"/>
<path fill="none" stroke="#1C832B" stroke-miterlimit="10" d="M8.78,28.784"/>
<polygon fill="#9CD7A5" points="295.19,85.272 107.356,179.662 103.251,100.177 295.19,85.272 "/>
</svg>
